<?xml version="1.0" standalone="no"?>
<svg viewBox="0 0 200 200" xmlns="http://www.w3.org/2000/svg">
  <path fill="#96C9DC" d="M32.8,-60.7C42.2,-51.4,49.3,-42,52.5,-31.8C55.8,-21.7,55.2,-10.8,59.2,2.3C63.3,15.5,71.9,31,68.4,40.6C64.8,50.2,49,53.9,35.6,58.9C22.2,63.8,11.1,70,-0.4,70.8C-12,71.6,-23.9,66.9,-33.8,59.9C-43.7,52.8,-51.5,43.5,-59.3,33.2C-67.1,22.8,-75,11.4,-70.7,2.5C-66.4,-6.5,-50,-12.9,-40,-19.6C-30.1,-26.3,-26.6,-33.2,-21.1,-44.7C-15.5,-56.1,-7.7,-72.1,2,-75.5C11.7,-79,23.4,-70,32.8,-60.7Z" transform="translate(100 100)" />
</svg>
