<?xml version="1.0" standalone="no"?>
<svg viewBox="0 0 200 200" xmlns="http://www.w3.org/2000/svg">
  <path fill="#F06C9B" d="M25.2,-48.7C30.9,-40.4,32.4,-30,39.7,-21.5C47.1,-13.1,60.2,-6.5,68.5,4.8C76.8,16.1,80.3,32.3,74.8,43.8C69.2,55.3,54.5,62.2,40.6,62.3C26.6,62.5,13.3,56,0.7,54.8C-11.9,53.7,-23.9,57.9,-34.7,55.9C-45.5,53.8,-55.1,45.6,-58.1,35.3C-61.2,24.9,-57.6,12.5,-57.1,0.2C-56.7,-12,-59.5,-24,-55.2,-32.2C-51,-40.4,-39.8,-44.9,-29.4,-50.5C-19,-56,-9.5,-62.7,0.1,-62.9C9.8,-63.1,19.5,-57,25.2,-48.7Z" transform="translate(100 100)" />
</svg>
