<?xml version="1.0" standalone="no"?>
<svg viewBox="0 0 200 200" xmlns="http://www.w3.org/2000/svg">
  <path fill="#0F62FE" d="M31,-52.1C39.8,-48.5,46.3,-39.5,47.9,-29.9C49.4,-20.3,46,-10.2,47.5,0.8C48.9,11.8,55.2,23.6,54.6,35C54.1,46.5,46.8,57.5,36.6,67.3C26.3,77.1,13.2,85.7,3.3,80C-6.6,74.3,-13.1,54.2,-18.9,41.8C-24.6,29.3,-29.5,24.6,-40.4,18.9C-51.3,13.3,-68.1,6.6,-74.5,-3.7C-80.8,-13.9,-76.6,-27.9,-66,-34C-55.3,-40,-38.1,-38.2,-26.1,-39.8C-14,-41.4,-7,-46.6,2,-50.1C11.1,-53.7,22.1,-55.6,31,-52.1Z" transform="translate(100 100)" />
</svg>
